<?xml version="1.0" encoding="UTF-8"?>
<svg xmlns="http://www.w3.org/2000/svg" xmlns:xlink="http://www.w3.org/1999/xlink" width="16" height="16" viewBox="0 0 1024 1024">
  <defs>
    <style>
      .iconfont { font-family: "iconfont" !important; font-size: 16px; font-style: normal; -webkit-font-smoothing: antialiased; -moz-osx-font-smoothing: grayscale; }
    </style>
  </defs>
  
  <!-- 用户图标 -->
  <symbol id="icon-user" viewBox="0 0 1024 1024">
    <path d="M512 512c123.776 0 224-100.224 224-224S635.776 64 512 64 288 164.224 288 288s100.224 224 224 224zM512 640c-123.776 0-224 100.224-224 224v160h448V864c0-123.776-100.224-224-224-224z" fill="currentColor"/>
  </symbol>
  
  <!-- 设置图标 -->
  <symbol id="icon-settings" viewBox="0 0 1024 1024">
    <path d="M512 320c-105.888 0-192 86.112-192 192s86.112 192 192 192 192-86.112 192-192-86.112-192-192-192zM512 640c-70.592 0-128-57.408-128-128s57.408-128 128-128 128 57.408 128 128-57.408 128-128 128z" fill="currentColor"/>
    <path d="M512 64c-24.832 0-45.056 20.224-45.056 45.056v64c0 24.832 20.224 45.056 45.056 45.056s45.056-20.224 45.056-45.056v-64C557.056 84.224 536.832 64 512 64zM512 870.4c-24.832 0-45.056 20.224-45.056 45.056v64c0 24.832 20.224 45.056 45.056 45.056s45.056-20.224 45.056-45.056v-64C557.056 890.624 536.832 870.4 512 870.4zM960 512c0-24.832-20.224-45.056-45.056-45.056h-64c-24.832 0-45.056 20.224-45.056 45.056s20.224 45.056 45.056 45.056h64C939.776 557.056 960 536.832 960 512zM173.056 512c0-24.832-20.224-45.056-45.056-45.056h-64C39.168 466.944 19.2 487.168 19.2 512s20.224 45.056 45.056 45.056h64C152.832 557.056 173.056 536.832 173.056 512z" fill="currentColor"/>
  </symbol>
  
  <!-- 患者图标 -->
  <symbol id="icon-patient" viewBox="0 0 1024 1024">
    <path d="M512 256c70.592 0 128-57.408 128-128S582.592 0 512 0s-128 57.408-128 128 57.408 128 128 128zM512 320c-105.888 0-192 86.112-192 192v192h384V512c0-105.888-86.112-192-192-192z" fill="currentColor"/>
  </symbol>
  
  <!-- 科室图标 -->
  <symbol id="icon-department" viewBox="0 0 1024 1024">
    <path d="M832 64H192c-35.328 0-64 28.672-64 64v832c0 35.328 28.672 64 64 64h640c35.328 0 64-28.672 64-64V128c0-35.328-28.672-64-64-64zM768 896H256V192h512v704z" fill="currentColor"/>
    <path d="M320 256h384v64H320v-64zM320 384h384v64H320v-64zM320 512h384v64H320v-64zM320 640h256v64H320v-64z" fill="currentColor"/>
  </symbol>
  
  <!-- AI图标 -->
  <symbol id="icon-ai" viewBox="0 0 1024 1024">
    <path d="M512 64C264.576 64 64 264.576 64 512s200.576 448 448 448 448-200.576 448-448S759.424 64 512 64zM512 896C299.968 896 128 724.032 128 512S299.968 128 512 128s384 171.968 384 384-171.968 384-384 384z" fill="currentColor"/>
    <path d="M512 256c-141.152 0-256 114.848-256 256s114.848 256 256 256 256-114.848 256-256-114.848-256-256-256zM512 704c-105.888 0-192-86.112-192-192s86.112-192 192-192 192 86.112 192 192-86.112 192-192 192z" fill="currentColor"/>
    <path d="M512 384c-70.592 0-128 57.408-128 128s57.408 128 128 128 128-57.408 128-128-57.408-128-128-128z" fill="currentColor"/>
  </symbol>
  
  <!-- 诊断图标 -->
  <symbol id="icon-diagnosis" viewBox="0 0 1024 1024">
    <path d="M512 64C264.576 64 64 264.576 64 512s200.576 448 448 448 448-200.576 448-448S759.424 64 512 64zM512 896C299.968 896 128 724.032 128 512S299.968 128 512 128s384 171.968 384 384-171.968 384-384 384z" fill="currentColor"/>
    <path d="M384 384h256v64H384v-64zM384 512h256v64H384v-64zM384 640h128v64H384v-64z" fill="currentColor"/>
  </symbol>
  
  <!-- 治疗图标 -->
  <symbol id="icon-treatment" viewBox="0 0 1024 1024">
    <path d="M512 64L448 128v256c0 35.328 28.672 64 64 64s64-28.672 64-64V128L512 64zM512 512c-70.592 0-128 57.408-128 128v192h256V640c0-70.592-57.408-128-128-128z" fill="currentColor"/>
  </symbol>
  
  <!-- 用药图标 -->
  <symbol id="icon-medicine" viewBox="0 0 1024 1024">
    <path d="M832 256H704V192c0-35.328-28.672-64-64-64H384c-35.328 0-64 28.672-64 64v64H192c-35.328 0-64 28.672-64 64v512c0 35.328 28.672 64 64 64h640c35.328 0 64-28.672 64-64V320c0-35.328-28.672-64-64-64zM384 192h256v64H384v-64zM768 768H256V384h512v384z" fill="currentColor"/>
    <path d="M384 448h256v64H384v-64zM384 576h256v64H384v-64zM384 704h128v64H384v-64z" fill="currentColor"/>
  </symbol>
  
  <!-- 预后图标 -->
  <symbol id="icon-prognosis" viewBox="0 0 1024 1024">
    <path d="M512 64C264.576 64 64 264.576 64 512s200.576 448 448 448 448-200.576 448-448S759.424 64 512 64zM512 896C299.968 896 128 724.032 128 512S299.968 128 512 128s384 171.968 384 384-171.968 384-384 384z" fill="currentColor"/>
    <path d="M512 256c-141.152 0-256 114.848-256 256s114.848 256 256 256 256-114.848 256-256-114.848-256-256-256zM512 704c-105.888 0-192-86.112-192-192s86.112-192 192-192 192 86.112 192 192-86.112 192-192 192z" fill="currentColor"/>
    <path d="M512 384c-70.592 0-128 57.408-128 128s57.408 128 128 128 128-57.408 128-128-57.408-128-128-128z" fill="currentColor"/>
  </symbol>
  
  <!-- 护理图标 -->
  <symbol id="icon-nursing" viewBox="0 0 1024 1024">
    <path d="M512 64L448 128v256c0 35.328 28.672 64 64 64s64-28.672 64-64V128L512 64zM512 512c-70.592 0-128 57.408-128 128v192h256V640c0-70.592-57.408-128-128-128z" fill="currentColor"/>
    <path d="M384 640h256v64H384v-64zM384 768h256v64H384v-64z" fill="currentColor"/>
  </symbol>
  
  <!-- 退出图标 -->
  <symbol id="icon-logout" viewBox="0 0 1024 1024">
    <path d="M512 64C264.576 64 64 264.576 64 512s200.576 448 448 448 448-200.576 448-448S759.424 64 512 64zM512 896C299.968 896 128 724.032 128 512S299.968 128 512 128s384 171.968 384 384-171.968 384-384 384z" fill="currentColor"/>
    <path d="M384 448h256v64H384v-64zM384 576h256v64H384v-64zM384 704h128v64H384v-64z" fill="currentColor"/>
  </symbol>
  
  <!-- 刷新图标 -->
  <symbol id="icon-refresh" viewBox="0 0 1024 1024">
    <path d="M512 64C264.576 64 64 264.576 64 512s200.576 448 448 448 448-200.576 448-448S759.424 64 512 64zM512 896C299.968 896 128 724.032 128 512S299.968 128 512 128s384 171.968 384 384-171.968 384-384 384z" fill="currentColor"/>
    <path d="M512 256c-141.152 0-256 114.848-256 256s114.848 256 256 256 256-114.848 256-256-114.848-256-256-256zM512 704c-105.888 0-192-86.112-192-192s86.112-192 192-192 192 86.112 192 192-86.112 192-192 192z" fill="currentColor"/>
  </symbol>
  
  <!-- 运行图标 -->
  <symbol id="icon-run" viewBox="0 0 1024 1024">
    <path d="M512 64C264.576 64 64 264.576 64 512s200.576 448 448 448 448-200.576 448-448S759.424 64 512 64zM512 896C299.968 896 128 724.032 128 512S299.968 128 512 128s384 171.968 384 384-171.968 384-384 384z" fill="currentColor"/>
    <path d="M384 448l256 128-256 128V448z" fill="currentColor"/>
  </symbol>
  
  <!-- 停止图标 -->
  <symbol id="icon-stop" viewBox="0 0 1024 1024">
    <path d="M512 64C264.576 64 64 264.576 64 512s200.576 448 448 448 448-200.576 448-448S759.424 64 512 64zM512 896C299.968 896 128 724.032 128 512S299.968 128 512 128s384 171.968 384 384-171.968 384-384 384z" fill="currentColor"/>
    <path d="M384 384h256v256H384V384z" fill="currentColor"/>
  </symbol>
  
  <!-- 进度图标 -->
  <symbol id="icon-progress" viewBox="0 0 1024 1024">
    <path d="M512 64C264.576 64 64 264.576 64 512s200.576 448 448 448 448-200.576 448-448S759.424 64 512 64zM512 896C299.968 896 128 724.032 128 512S299.968 128 512 128s384 171.968 384 384-171.968 384-384 384z" fill="currentColor"/>
    <path d="M512 256c-141.152 0-256 114.848-256 256s114.848 256 256 256 256-114.848 256-256-114.848-256-256-256zM512 704c-105.888 0-192-86.112-192-192s86.112-192 192-192 192 86.112 192 192-86.112 192-192 192z" fill="currentColor"/>
  </symbol>
</svg> 